<?xml version="1.0" encoding="UTF-8" standalone="no"?>
<svg
   xmlns:dc="http://purl.org/dc/elements/1.1/"
   xmlns:cc="http://creativecommons.org/ns#"
   xmlns:rdf="http://www.w3.org/1999/02/22-rdf-syntax-ns#"
   xmlns:svg="http://www.w3.org/2000/svg"
   xmlns="http://www.w3.org/2000/svg"
   xmlns:sodipodi="http://sodipodi.sourceforge.net/DTD/sodipodi-0.dtd"
   xmlns:inkscape="http://www.inkscape.org/namespaces/inkscape"
   height="512pt"
   viewBox="0 0 512 512.04267"
   width="512pt"
   version="1.1"
   id="svg4712"
   sodipodi:docname="camera.svg"
   inkscape:version="0.92.2 (5c3e80d, 2017-08-06)">
  <metadata
     id="metadata4718">
    <rdf:RDF>
      <cc:Work
         rdf:about="">
        <dc:format>image/svg+xml</dc:format>
        <dc:type
           rdf:resource="http://purl.org/dc/dcmitype/StillImage" />
      </cc:Work>
    </rdf:RDF>
  </metadata>
  <defs
     id="defs4716" />
  <sodipodi:namedview
     pagecolor="#ffffff"
     bordercolor="#666666"
     borderopacity="1"
     objecttolerance="10"
     gridtolerance="10"
     guidetolerance="10"
     inkscape:pageopacity="0"
     inkscape:pageshadow="2"
     inkscape:window-width="897"
     inkscape:window-height="991"
     id="namedview4714"
     showgrid="false"
     inkscape:zoom="0.086425781"
     inkscape:cx="-3378.4445"
     inkscape:cy="-725.1641"
     inkscape:window-x="-8"
     inkscape:window-y="0"
     inkscape:window-maximized="0"
     inkscape:current-layer="svg4712"
     inkscape:snap-global="false" />
  <path
     d="m463.871094 163.007812h20.160156c-36.777344-80.851562-105.085938-140.628906-186.6875-158.230468-.234375 2.410156-.960938 4.546875-2.132812 6.679687l-6.164063 12.007813-71.640625 139.542968zm0 0"
     fill="#b2ebf2"
     id="path4686"
     style="fill:#a9a9a9;fill-opacity:1" />
  <path
     d="m202.347656 346.558594-50.644531-76.519532-90.691406-136.066406-11.710938-17.238281c-31.039062 41.582031-49.2812498 91.414063-49.2812498 144.554687 0 30.699219 5.9960938 60.226563 17.1523438 87.640626 2.988281-1.410157 6.53125-2.371094 10.070313-2.371094zm0 0"
     fill="#00bcd4"
     id="path4688"
     style="fill:#a9a9a9;fill-opacity:1" />
  <path
     d="m49.515625 352.640625h-21.503906c39.464843 79.488281 112.832031 137.875 200.339843 154.816406 0-3.136719.769532-6.507812 2.539063-9.644531l4.800781-8.851562h.253906l76.140626-136.300782h-262.570313zm0 0"
     fill="#26c6da"
     id="path4690"
     style="fill:#a9a9a9;fill-opacity:1" />
  <path
     d="m73.621094 121.214844 73.8125 118.890625 44.480468-71.59375 1.707032-2.964844 80.640625-130.027344 10.261719-16.808593c-4.652344-.234376-9.535157-.234376-14.167969-.234376-83.089844 0-157.863281 34.324219-207.976563 88.871094 2.433594 1.601563 4.628906 3.628906 6.355469 6.144532zm0 0"
     fill="#00acc1"
     id="path4692"
     style="fill:#a9a9a9;fill-opacity:1" />
  <path
     d="m 452.80078,404.39844 -5.09765,-8.42578 -77.07813,-129.85938 -46.44141,78.31641 -2.30468,4.22265 -83.71094,140.78125 -10.96875,18.34375 c 5.10156,0 9.96484,0.25782 15.0625,0.25782 87.01953,0 164.86328,-37.67578 217.42969,-97.15235 -2.81641,-1.28125 -5.09766,-3.51953 -6.89063,-6.48437 z m 0,0"
     id="path4694"
     inkscape:connector-curvature="0"
     style="fill:#a9a9a9;fill-opacity:1" />
  <path
     d="m494.871094 171.585938c-2.988282 1.363281-6.53125 2.28125-10.070313 2.28125h-175.105469l50.644532 73.726562 90.691406 131.074219 11.710938 16.617187c31.039062-40.0625 49.277343-88.085937 49.277343-139.285156 0-29.589844-5.992187-58.027344-17.148437-84.414062zm0 0"
     fill="#80deea"
     id="path4696"
     style="fill:#a9a9a9;fill-opacity:1" />
  <path
     d="m256.019531 512c-141.160156 0-255.9999998-114.835938-255.9999998-256s114.8398438-256 255.9999998-256c141.164063 0 256 114.835938 256 256s-114.835937 256-256 256zm0-480c-123.519531 0-224 100.480469-224 224s100.480469 224 224 224c123.523438 0 224-100.480469 224-224s-100.476562-224-224-224zm0 0"
     id="path4698"
     style="fill:#111111;fill-opacity:1" />
  <path
     d="m474.6875 179.007812h-272.339844c-8.832031 0-16-7.167968-16-16 0-8.832031 7.167969-16 16-16h272.339844c8.832031 0 16 7.167969 16 16 0 8.832032-7.144531 16-16 16zm0 0"
     id="path4700"
     style="fill:#111111;fill-opacity:1" />
  <path
     d="m148.671875 271.957031c-2.710937 0-5.460937-.683593-8-2.15625-7.660156-4.414062-10.261719-14.207031-5.84375-21.84375l137.429687-238.058593c4.414063-7.660157 14.226563-10.28125 21.84375-5.84375 7.660157 4.414062 10.261719 14.207031 5.84375 21.84375l-137.40625 238.058593c-2.964843 5.140625-8.339843 8-13.867187 8zm0 0"
     id="path4702"
     style="fill:#111111;fill-opacity:1" />
  <path
     d="m202.367188 364.90625c-5.523438 0-10.902344-2.859375-13.867188-8l-136.148438-235.796875c-4.414062-7.660156-1.792968-17.429687 5.867188-21.84375 7.636719-4.4375 17.429688-1.792969 21.84375 5.84375l136.152344 235.796875c4.414062 7.660156 1.789062 17.429688-5.847656 21.847656-2.539063 1.46875-5.289063 2.152344-8 2.152344zm0 0"
     id="path4704"
     style="fill:#111111;fill-opacity:1" />
  <path
     d="m309.695312 364.90625h-272.339843c-8.832031 0-16-7.167969-16-16s7.167969-16 16-16h272.320312c8.832031 0 16 7.167969 16 16s-7.148437 16-15.980469 16zm0 0"
     id="path4706"
     style="fill:#111111;fill-opacity:1" />
  <path
     d="m227.199219 507.777344c-2.707031 0-5.460938-.683594-8-2.15625-7.636719-4.394532-10.261719-14.1875-5.84375-21.84375l136.148437-235.820313c4.417969-7.660156 14.230469-10.261719 21.84375-5.84375 7.660156 4.414063 10.261719 14.207031 5.847656 21.84375l-136.148437 235.820313c-2.945313 5.140625-8.320313 8-13.847656 8zm0 0"
     id="path4708"
     style="fill:#111111;fill-opacity:1" />
  <path
     d="m445.84375 414.804688c-5.523438 0-10.898438-2.859376-13.863281-8l-136.152344-235.796876c-4.414063-7.660156-1.789063-17.429687 5.847656-21.84375 7.636719-4.417968 17.449219-1.816406 21.84375 5.84375l136.148438 235.796876c4.417969 7.660156 1.792969 17.429687-5.84375 21.847656-2.515625 1.46875-5.269531 2.152344-7.980469 2.152344zm0 0"
     id="path4710"
     style="fill:#111111;fill-opacity:1" />
</svg>
